<?xml version="1.0" encoding="UTF-8" standalone="no"?>
<!DOCTYPE svg PUBLIC "-//W3C//DTD SVG 1.1//EN"
 "http://www.w3.org/Graphics/SVG/1.1/DTD/svg11.dtd">
<!-- Generated by graphviz version 2.42.4 (0)
 -->
<!-- Title: Workflow Pages: 1 -->
<svg width="276pt" height="262pt"
 viewBox="0.00 0.00 276.00 262.00" xmlns="http://www.w3.org/2000/svg" xmlns:xlink="http://www.w3.org/1999/xlink">
<g id="graph0" class="graph" transform="scale(1 1) rotate(0) translate(4 258)">
<title>Workflow</title>
<polygon fill="white" stroke="transparent" points="-4,4 -4,-258 272,-258 272,4 -4,4"/>
<!-- dispatcher -->
<g id="node1" class="node">
<title>dispatcher</title>
<polygon fill="lightgreen" stroke="black" points="200,-254 108,-254 108,-216 200,-216 200,-254"/>
<text text-anchor="middle" x="154" y="-238.8" font-family="Times,serif" font-size="14.00">dispatcher</text>
<text text-anchor="middle" x="154" y="-223.8" font-family="Times,serif" font-size="14.00">(Start)</text>
</g>
<!-- researcher -->
<g id="node2" class="node">
<title>researcher</title>
<polygon fill="lightblue" stroke="black" points="94,-180 0,-180 0,-144 94,-144 94,-180"/>
<text text-anchor="middle" x="47" y="-158.3" font-family="Times,serif" font-size="14.00">researcher</text>
</g>
<!-- dispatcher&#45;&gt;researcher -->
<g id="edge5" class="edge">
<title>dispatcher&#45;&gt;researcher</title>
<path fill="none" stroke="black" d="M126.72,-215.9C112.85,-206.7 95.86,-195.42 81.13,-185.64"/>
<polygon fill="black" stroke="black" points="72.75,-180.09 83.58,-181.87 76.92,-182.85 81.09,-185.62 81.09,-185.62 81.09,-185.62 76.92,-182.85 78.6,-189.37 72.75,-180.09 72.75,-180.09"/>
</g>
<!-- marketer -->
<g id="node3" class="node">
<title>marketer</title>
<polygon fill="lightblue" stroke="black" points="195.5,-180 112.5,-180 112.5,-144 195.5,-144 195.5,-180"/>
<text text-anchor="middle" x="154" y="-158.3" font-family="Times,serif" font-size="14.00">marketer</text>
</g>
<!-- dispatcher&#45;&gt;marketer -->
<g id="edge6" class="edge">
<title>dispatcher&#45;&gt;marketer</title>
<path fill="none" stroke="black" d="M154,-215.72C154,-207.97 154,-198.79 154,-190.27"/>
<polygon fill="black" stroke="black" points="154,-180 158.5,-190 154,-185 154,-190 154,-190 154,-190 154,-185 149.5,-190 154,-180 154,-180"/>
</g>
<!-- legal -->
<g id="node4" class="node">
<title>legal</title>
<polygon fill="lightblue" stroke="black" points="268,-180 214,-180 214,-144 268,-144 268,-180"/>
<text text-anchor="middle" x="241" y="-158.3" font-family="Times,serif" font-size="14.00">legal</text>
</g>
<!-- dispatcher&#45;&gt;legal -->
<g id="edge7" class="edge">
<title>dispatcher&#45;&gt;legal</title>
<path fill="none" stroke="black" d="M176.4,-215.72C187.37,-206.77 200.69,-195.9 212.38,-186.36"/>
<polygon fill="black" stroke="black" points="220.16,-180 215.26,-189.81 216.29,-183.16 212.42,-186.33 212.42,-186.33 212.42,-186.33 216.29,-183.16 209.57,-182.84 220.16,-180 220.16,-180"/>
</g>
<!-- fan_in::aggregator::e3a4ff58 -->
<g id="node6" class="node">
<title>fan_in::aggregator::e3a4ff58</title>
<ellipse fill="#eedd82" stroke="black" cx="154" cy="-90" rx="37.09" ry="18"/>
<text text-anchor="middle" x="154" y="-86.3" font-family="Times,serif" font-size="14.00">fan&#45;in</text>
</g>
<!-- researcher&#45;&gt;fan_in::aggregator::e3a4ff58 -->
<g id="edge3" class="edge">
<title>researcher&#45;&gt;fan_in::aggregator::e3a4ff58</title>
<path fill="none" stroke="black" d="M73.18,-143.88C88.63,-133.77 108.24,-120.94 124.27,-110.45"/>
<polygon fill="black" stroke="black" points="132.76,-104.9 126.86,-114.14 128.58,-107.63 124.39,-110.37 124.39,-110.37 124.39,-110.37 128.58,-107.63 121.93,-106.6 132.76,-104.9 132.76,-104.9"/>
</g>
<!-- marketer&#45;&gt;fan_in::aggregator::e3a4ff58 -->
<g id="edge2" class="edge">
<title>marketer&#45;&gt;fan_in::aggregator::e3a4ff58</title>
<path fill="none" stroke="black" d="M154,-143.7C154,-135.98 154,-126.71 154,-118.11"/>
<polygon fill="black" stroke="black" points="154,-108.1 158.5,-118.1 154,-113.1 154,-118.1 154,-118.1 154,-118.1 154,-113.1 149.5,-118.1 154,-108.1 154,-108.1"/>
</g>
<!-- legal&#45;&gt;fan_in::aggregator::e3a4ff58 -->
<g id="edge1" class="edge">
<title>legal&#45;&gt;fan_in::aggregator::e3a4ff58</title>
<path fill="none" stroke="black" d="M219.49,-143.7C207.61,-134.13 192.74,-122.17 180.18,-112.07"/>
<polygon fill="black" stroke="black" points="172.32,-105.74 182.93,-108.5 176.21,-108.87 180.11,-112.01 180.11,-112.01 180.11,-112.01 176.21,-108.87 177.29,-115.51 172.32,-105.74 172.32,-105.74"/>
</g>
<!-- aggregator -->
<g id="node5" class="node">
<title>aggregator</title>
<polygon fill="lightblue" stroke="black" points="202,-36 106,-36 106,0 202,0 202,-36"/>
<text text-anchor="middle" x="154" y="-14.3" font-family="Times,serif" font-size="14.00">aggregator</text>
</g>
<!-- fan_in::aggregator::e3a4ff58&#45;&gt;aggregator -->
<g id="edge4" class="edge">
<title>fan_in::aggregator::e3a4ff58&#45;&gt;aggregator</title>
<path fill="none" stroke="black" d="M154,-71.7C154,-63.98 154,-54.71 154,-46.11"/>
<polygon fill="black" stroke="black" points="154,-36.1 158.5,-46.1 154,-41.1 154,-46.1 154,-46.1 154,-46.1 154,-41.1 149.5,-46.1 154,-36.1 154,-36.1"/>
</g>
</g>
</svg>
