<?xml version="1.0" encoding="UTF-8" standalone="no"?>
<!DOCTYPE svg PUBLIC "-//W3C//DTD SVG 1.1//EN"
 "http://www.w3.org/Graphics/SVG/1.1/DTD/svg11.dtd">
<!-- Generated by graphviz version 2.42.4 (0)
 -->
<!-- Title: Workflow Pages: 1 -->
<svg width="196pt" height="262pt"
 viewBox="0.00 0.00 196.00 262.00" xmlns="http://www.w3.org/2000/svg" xmlns:xlink="http://www.w3.org/1999/xlink">
<g id="graph0" class="graph" transform="scale(1 1) rotate(0) translate(4 258)">
<title>Workflow</title>
<polygon fill="white" stroke="transparent" points="-4,4 -4,-258 192,-258 192,4 -4,4"/>
<!-- dispatcher -->
<g id="node1" class="node">
<title>dispatcher</title>
<polygon fill="lightgreen" stroke="black" points="134,-254 42,-254 42,-216 134,-216 134,-254"/>
<text text-anchor="middle" x="88" y="-238.8" font-family="Times,serif" font-size="14.00">dispatcher</text>
<text text-anchor="middle" x="88" y="-223.8" font-family="Times,serif" font-size="14.00">(Start)</text>
</g>
<!-- average -->
<g id="node2" class="node">
<title>average</title>
<polygon fill="lightblue" stroke="black" points="74,-180 0,-180 0,-144 74,-144 74,-180"/>
<text text-anchor="middle" x="37" y="-158.3" font-family="Times,serif" font-size="14.00">average</text>
</g>
<!-- dispatcher&#45;&gt;average -->
<g id="edge4" class="edge">
<title>dispatcher&#45;&gt;average</title>
<path fill="none" stroke="black" d="M74.87,-215.72C68.87,-207.37 61.68,-197.35 55.17,-188.3"/>
<polygon fill="black" stroke="black" points="49.21,-180 58.7,-185.5 52.13,-184.06 55.05,-188.13 55.05,-188.13 55.05,-188.13 52.13,-184.06 51.39,-190.75 49.21,-180 49.21,-180"/>
</g>
<!-- summation -->
<g id="node3" class="node">
<title>summation</title>
<polygon fill="lightblue" stroke="black" points="188,-180 92,-180 92,-144 188,-144 188,-180"/>
<text text-anchor="middle" x="140" y="-158.3" font-family="Times,serif" font-size="14.00">summation</text>
</g>
<!-- dispatcher&#45;&gt;summation -->
<g id="edge5" class="edge">
<title>dispatcher&#45;&gt;summation</title>
<path fill="none" stroke="black" d="M101.39,-215.72C107.5,-207.37 114.84,-197.35 121.47,-188.3"/>
<polygon fill="black" stroke="black" points="127.55,-180 125.27,-190.73 124.59,-184.04 121.64,-188.07 121.64,-188.07 121.64,-188.07 124.59,-184.04 118.01,-185.41 127.55,-180 127.55,-180"/>
</g>
<!-- fan_in::aggregator::01858188 -->
<g id="node5" class="node">
<title>fan_in::aggregator::01858188</title>
<ellipse fill="#eedd82" stroke="black" cx="88" cy="-90" rx="37.09" ry="18"/>
<text text-anchor="middle" x="88" y="-86.3" font-family="Times,serif" font-size="14.00">fan&#45;in</text>
</g>
<!-- average&#45;&gt;fan_in::aggregator::01858188 -->
<g id="edge1" class="edge">
<title>average&#45;&gt;fan_in::aggregator::01858188</title>
<path fill="none" stroke="black" d="M49.61,-143.7C55.84,-135.14 63.47,-124.67 70.28,-115.33"/>
<polygon fill="black" stroke="black" points="76.24,-107.14 73.99,-117.88 73.29,-111.19 70.35,-115.23 70.35,-115.23 70.35,-115.23 73.29,-111.19 66.71,-112.58 76.24,-107.14 76.24,-107.14"/>
</g>
<!-- summation&#45;&gt;fan_in::aggregator::01858188 -->
<g id="edge2" class="edge">
<title>summation&#45;&gt;fan_in::aggregator::01858188</title>
<path fill="none" stroke="black" d="M127.15,-143.7C120.79,-135.14 113.01,-124.67 106.07,-115.33"/>
<polygon fill="black" stroke="black" points="99.99,-107.14 109.57,-112.49 102.97,-111.16 105.96,-115.17 105.96,-115.17 105.96,-115.17 102.97,-111.16 102.34,-117.86 99.99,-107.14 99.99,-107.14"/>
</g>
<!-- aggregator -->
<g id="node4" class="node">
<title>aggregator</title>
<polygon fill="lightblue" stroke="black" points="136,-36 40,-36 40,0 136,0 136,-36"/>
<text text-anchor="middle" x="88" y="-14.3" font-family="Times,serif" font-size="14.00">aggregator</text>
</g>
<!-- fan_in::aggregator::01858188&#45;&gt;aggregator -->
<g id="edge3" class="edge">
<title>fan_in::aggregator::01858188&#45;&gt;aggregator</title>
<path fill="none" stroke="black" d="M88,-71.7C88,-63.98 88,-54.71 88,-46.11"/>
<polygon fill="black" stroke="black" points="88,-36.1 92.5,-46.1 88,-41.1 88,-46.1 88,-46.1 88,-46.1 88,-41.1 83.5,-46.1 88,-36.1 88,-36.1"/>
</g>
</g>
</svg>
