<?xml version="1.0" encoding="UTF-8" standalone="no"?>
<!DOCTYPE svg PUBLIC "-//W3C//DTD SVG 1.1//EN"
 "http://www.w3.org/Graphics/SVG/1.1/DTD/svg11.dtd">
<!-- Generated by graphviz version 2.42.4 (0)
 -->
<!-- Title: Workflow Pages: 1 -->
<svg width="662pt" height="478pt"
 viewBox="0.00 0.00 662.00 478.00" xmlns="http://www.w3.org/2000/svg" xmlns:xlink="http://www.w3.org/1999/xlink">
<g id="graph0" class="graph" transform="scale(1 1) rotate(0) translate(4 474)">
<title>Workflow</title>
<polygon fill="white" stroke="transparent" points="-4,4 -4,-474 658,-474 658,4 -4,4"/>
<!-- split_data_executor -->
<g id="node1" class="node">
<title>split_data_executor</title>
<polygon fill="lightgreen" stroke="black" points="404.5,-470 249.5,-470 249.5,-432 404.5,-432 404.5,-470"/>
<text text-anchor="middle" x="327" y="-454.8" font-family="Times,serif" font-size="14.00">split_data_executor</text>
<text text-anchor="middle" x="327" y="-439.8" font-family="Times,serif" font-size="14.00">(Start)</text>
</g>
<!-- map_executor_0 -->
<g id="node2" class="node">
<title>map_executor_0</title>
<polygon fill="lightblue" stroke="black" points="243,-396 111,-396 111,-360 243,-360 243,-396"/>
<text text-anchor="middle" x="177" y="-374.3" font-family="Times,serif" font-size="14.00">map_executor_0</text>
</g>
<!-- split_data_executor&#45;&gt;map_executor_0 -->
<g id="edge10" class="edge">
<title>split_data_executor&#45;&gt;map_executor_0</title>
<path fill="none" stroke="black" d="M288.76,-431.9C268.5,-422.31 243.48,-410.47 222.25,-400.42"/>
<polygon fill="black" stroke="black" points="213.1,-396.09 224.07,-396.3 217.62,-398.23 222.14,-400.37 222.14,-400.37 222.14,-400.37 217.62,-398.23 220.22,-404.44 213.1,-396.09 213.1,-396.09"/>
</g>
<!-- map_executor_1 -->
<g id="node3" class="node">
<title>map_executor_1</title>
<polygon fill="lightblue" stroke="black" points="393,-396 261,-396 261,-360 393,-360 393,-396"/>
<text text-anchor="middle" x="327" y="-374.3" font-family="Times,serif" font-size="14.00">map_executor_1</text>
</g>
<!-- split_data_executor&#45;&gt;map_executor_1 -->
<g id="edge11" class="edge">
<title>split_data_executor&#45;&gt;map_executor_1</title>
<path fill="none" stroke="black" d="M327,-431.72C327,-423.97 327,-414.79 327,-406.27"/>
<polygon fill="black" stroke="black" points="327,-396 331.5,-406 327,-401 327,-406 327,-406 327,-406 327,-401 322.5,-406 327,-396 327,-396"/>
</g>
<!-- map_executor_2 -->
<g id="node4" class="node">
<title>map_executor_2</title>
<polygon fill="lightblue" stroke="black" points="543,-396 411,-396 411,-360 543,-360 543,-396"/>
<text text-anchor="middle" x="477" y="-374.3" font-family="Times,serif" font-size="14.00">map_executor_2</text>
</g>
<!-- split_data_executor&#45;&gt;map_executor_2 -->
<g id="edge12" class="edge">
<title>split_data_executor&#45;&gt;map_executor_2</title>
<path fill="none" stroke="black" d="M365.24,-431.9C385.5,-422.31 410.52,-410.47 431.75,-400.42"/>
<polygon fill="black" stroke="black" points="440.9,-396.09 433.78,-404.44 436.38,-398.23 431.86,-400.37 431.86,-400.37 431.86,-400.37 436.38,-398.23 429.93,-396.3 440.9,-396.09 440.9,-396.09"/>
</g>
<!-- fan_in::shuffle_executor::aaf0d85a -->
<g id="node11" class="node">
<title>fan_in::shuffle_executor::aaf0d85a</title>
<ellipse fill="#eedd82" stroke="black" cx="327" cy="-306" rx="37.09" ry="18"/>
<text text-anchor="middle" x="327" y="-302.3" font-family="Times,serif" font-size="14.00">fan&#45;in</text>
</g>
<!-- map_executor_0&#45;&gt;fan_in::shuffle_executor::aaf0d85a -->
<g id="edge1" class="edge">
<title>map_executor_0&#45;&gt;fan_in::shuffle_executor::aaf0d85a</title>
<path fill="none" stroke="black" d="M213.69,-359.88C237.48,-348.78 268.29,-334.4 291.77,-323.44"/>
<polygon fill="black" stroke="black" points="301.03,-319.12 293.87,-327.43 296.5,-321.24 291.97,-323.35 291.97,-323.35 291.97,-323.35 296.5,-321.24 290.06,-319.27 301.03,-319.12 301.03,-319.12"/>
</g>
<!-- map_executor_1&#45;&gt;fan_in::shuffle_executor::aaf0d85a -->
<g id="edge2" class="edge">
<title>map_executor_1&#45;&gt;fan_in::shuffle_executor::aaf0d85a</title>
<path fill="none" stroke="black" d="M327,-359.7C327,-351.98 327,-342.71 327,-334.11"/>
<polygon fill="black" stroke="black" points="327,-324.1 331.5,-334.1 327,-329.1 327,-334.1 327,-334.1 327,-334.1 327,-329.1 322.5,-334.1 327,-324.1 327,-324.1"/>
</g>
<!-- map_executor_2&#45;&gt;fan_in::shuffle_executor::aaf0d85a -->
<g id="edge3" class="edge">
<title>map_executor_2&#45;&gt;fan_in::shuffle_executor::aaf0d85a</title>
<path fill="none" stroke="black" d="M440.31,-359.88C416.52,-348.78 385.71,-334.4 362.23,-323.44"/>
<polygon fill="black" stroke="black" points="352.97,-319.12 363.94,-319.27 357.5,-321.24 362.03,-323.35 362.03,-323.35 362.03,-323.35 357.5,-321.24 360.13,-327.43 352.97,-319.12 352.97,-319.12"/>
</g>
<!-- shuffle_executor -->
<g id="node5" class="node">
<title>shuffle_executor</title>
<polygon fill="lightblue" stroke="black" points="394,-252 260,-252 260,-216 394,-216 394,-252"/>
<text text-anchor="middle" x="327" y="-230.3" font-family="Times,serif" font-size="14.00">shuffle_executor</text>
</g>
<!-- reduce_executor_0 -->
<g id="node6" class="node">
<title>reduce_executor_0</title>
<polygon fill="lightblue" stroke="black" points="150,-180 0,-180 0,-144 150,-144 150,-180"/>
<text text-anchor="middle" x="75" y="-158.3" font-family="Times,serif" font-size="14.00">reduce_executor_0</text>
</g>
<!-- shuffle_executor&#45;&gt;reduce_executor_0 -->
<g id="edge13" class="edge">
<title>shuffle_executor&#45;&gt;reduce_executor_0</title>
<path fill="none" stroke="black" d="M265.68,-215.97C229.7,-205.97 184.07,-193.3 146.47,-182.85"/>
<polygon fill="black" stroke="black" points="136.6,-180.11 147.44,-178.45 141.42,-181.45 146.23,-182.79 146.23,-182.79 146.23,-182.79 141.42,-181.45 145.03,-187.12 136.6,-180.11 136.6,-180.11"/>
</g>
<!-- reduce_executor_1 -->
<g id="node7" class="node">
<title>reduce_executor_1</title>
<polygon fill="lightblue" stroke="black" points="318,-180 168,-180 168,-144 318,-144 318,-180"/>
<text text-anchor="middle" x="243" y="-158.3" font-family="Times,serif" font-size="14.00">reduce_executor_1</text>
</g>
<!-- shuffle_executor&#45;&gt;reduce_executor_1 -->
<g id="edge14" class="edge">
<title>shuffle_executor&#45;&gt;reduce_executor_1</title>
<path fill="none" stroke="black" d="M306.24,-215.7C295.76,-206.97 282.89,-196.24 271.5,-186.75"/>
<polygon fill="black" stroke="black" points="263.53,-180.1 274.09,-183.05 267.37,-183.31 271.21,-186.51 271.21,-186.51 271.21,-186.51 267.37,-183.31 268.33,-189.96 263.53,-180.1 263.53,-180.1"/>
</g>
<!-- reduce_executor_2 -->
<g id="node8" class="node">
<title>reduce_executor_2</title>
<polygon fill="lightblue" stroke="black" points="486,-180 336,-180 336,-144 486,-144 486,-180"/>
<text text-anchor="middle" x="411" y="-158.3" font-family="Times,serif" font-size="14.00">reduce_executor_2</text>
</g>
<!-- shuffle_executor&#45;&gt;reduce_executor_2 -->
<g id="edge15" class="edge">
<title>shuffle_executor&#45;&gt;reduce_executor_2</title>
<path fill="none" stroke="black" d="M347.76,-215.7C358.24,-206.97 371.11,-196.24 382.5,-186.75"/>
<polygon fill="black" stroke="black" points="390.47,-180.1 385.67,-189.96 386.63,-183.31 382.79,-186.51 382.79,-186.51 382.79,-186.51 386.63,-183.31 379.91,-183.05 390.47,-180.1 390.47,-180.1"/>
</g>
<!-- reduce_executor_3 -->
<g id="node9" class="node">
<title>reduce_executor_3</title>
<polygon fill="lightblue" stroke="black" points="654,-180 504,-180 504,-144 654,-144 654,-180"/>
<text text-anchor="middle" x="579" y="-158.3" font-family="Times,serif" font-size="14.00">reduce_executor_3</text>
</g>
<!-- shuffle_executor&#45;&gt;reduce_executor_3 -->
<g id="edge16" class="edge">
<title>shuffle_executor&#45;&gt;reduce_executor_3</title>
<path fill="none" stroke="black" d="M388.32,-215.97C424.3,-205.97 469.93,-193.3 507.53,-182.85"/>
<polygon fill="black" stroke="black" points="517.4,-180.11 508.97,-187.12 512.58,-181.45 507.77,-182.79 507.77,-182.79 507.77,-182.79 512.58,-181.45 506.56,-178.45 517.4,-180.11 517.4,-180.11"/>
</g>
<!-- fan_in::completion_executor::1e85eeb6 -->
<g id="node12" class="node">
<title>fan_in::completion_executor::1e85eeb6</title>
<ellipse fill="#eedd82" stroke="black" cx="327" cy="-90" rx="37.09" ry="18"/>
<text text-anchor="middle" x="327" y="-86.3" font-family="Times,serif" font-size="14.00">fan&#45;in</text>
</g>
<!-- reduce_executor_0&#45;&gt;fan_in::completion_executor::1e85eeb6 -->
<g id="edge5" class="edge">
<title>reduce_executor_0&#45;&gt;fan_in::completion_executor::1e85eeb6</title>
<path fill="none" stroke="black" d="M136.32,-143.97C182.66,-131.09 245.01,-113.78 285.59,-102.5"/>
<polygon fill="black" stroke="black" points="295.42,-99.77 286.99,-106.79 290.6,-101.11 285.78,-102.45 285.78,-102.45 285.78,-102.45 290.6,-101.11 284.58,-98.11 295.42,-99.77 295.42,-99.77"/>
</g>
<!-- reduce_executor_1&#45;&gt;fan_in::completion_executor::1e85eeb6 -->
<g id="edge6" class="edge">
<title>reduce_executor_1&#45;&gt;fan_in::completion_executor::1e85eeb6</title>
<path fill="none" stroke="black" d="M263.76,-143.7C275.05,-134.29 289.12,-122.57 301.12,-112.57"/>
<polygon fill="black" stroke="black" points="309.04,-105.97 304.23,-115.83 305.2,-109.17 301.35,-112.37 301.35,-112.37 301.35,-112.37 305.2,-109.17 298.47,-108.91 309.04,-105.97 309.04,-105.97"/>
</g>
<!-- reduce_executor_2&#45;&gt;fan_in::completion_executor::1e85eeb6 -->
<g id="edge7" class="edge">
<title>reduce_executor_2&#45;&gt;fan_in::completion_executor::1e85eeb6</title>
<path fill="none" stroke="black" d="M390.24,-143.7C378.95,-134.29 364.88,-122.57 352.88,-112.57"/>
<polygon fill="black" stroke="black" points="344.96,-105.97 355.53,-108.91 348.8,-109.17 352.65,-112.37 352.65,-112.37 352.65,-112.37 348.8,-109.17 349.77,-115.83 344.96,-105.97 344.96,-105.97"/>
</g>
<!-- reduce_executor_3&#45;&gt;fan_in::completion_executor::1e85eeb6 -->
<g id="edge8" class="edge">
<title>reduce_executor_3&#45;&gt;fan_in::completion_executor::1e85eeb6</title>
<path fill="none" stroke="black" d="M517.68,-143.97C471.34,-131.09 408.99,-113.78 368.41,-102.5"/>
<polygon fill="black" stroke="black" points="358.58,-99.77 369.42,-98.11 363.4,-101.11 368.22,-102.45 368.22,-102.45 368.22,-102.45 363.4,-101.11 367.01,-106.79 358.58,-99.77 358.58,-99.77"/>
</g>
<!-- completion_executor -->
<g id="node10" class="node">
<title>completion_executor</title>
<polygon fill="lightblue" stroke="black" points="409,-36 245,-36 245,0 409,0 409,-36"/>
<text text-anchor="middle" x="327" y="-14.3" font-family="Times,serif" font-size="14.00">completion_executor</text>
</g>
<!-- fan_in::shuffle_executor::aaf0d85a&#45;&gt;shuffle_executor -->
<g id="edge4" class="edge">
<title>fan_in::shuffle_executor::aaf0d85a&#45;&gt;shuffle_executor</title>
<path fill="none" stroke="black" d="M327,-287.7C327,-279.98 327,-270.71 327,-262.11"/>
<polygon fill="black" stroke="black" points="327,-252.1 331.5,-262.1 327,-257.1 327,-262.1 327,-262.1 327,-262.1 327,-257.1 322.5,-262.1 327,-252.1 327,-252.1"/>
</g>
<!-- fan_in::completion_executor::1e85eeb6&#45;&gt;completion_executor -->
<g id="edge9" class="edge">
<title>fan_in::completion_executor::1e85eeb6&#45;&gt;completion_executor</title>
<path fill="none" stroke="black" d="M327,-71.7C327,-63.98 327,-54.71 327,-46.11"/>
<polygon fill="black" stroke="black" points="327,-36.1 331.5,-46.1 327,-41.1 327,-46.1 327,-46.1 327,-46.1 327,-41.1 322.5,-46.1 327,-36.1 327,-36.1"/>
</g>
</g>
</svg>
