<?xml version="1.0" encoding="UTF-8" standalone="no"?>
<!DOCTYPE svg PUBLIC "-//W3C//DTD SVG 1.1//EN"
 "http://www.w3.org/Graphics/SVG/1.1/DTD/svg11.dtd">
<!-- Generated by graphviz version 2.42.4 (0)
 -->
<!-- Title: Workflow Pages: 1 -->
<svg width="467pt" height="622pt"
 viewBox="0.00 0.00 467.00 622.00" xmlns="http://www.w3.org/2000/svg" xmlns:xlink="http://www.w3.org/1999/xlink">
<g id="graph0" class="graph" transform="scale(1 1) rotate(0) translate(4 618)">
<title>Workflow</title>
<polygon fill="white" stroke="transparent" points="-4,4 -4,-618 463,-618 463,4 -4,4"/>
<!-- data_ingestion -->
<g id="node1" class="node">
<title>data_ingestion</title>
<polygon fill="lightgreen" stroke="black" points="288,-614 167,-614 167,-576 288,-576 288,-614"/>
<text text-anchor="middle" x="227.5" y="-598.8" font-family="Times,serif" font-size="14.00">data_ingestion</text>
<text text-anchor="middle" x="227.5" y="-583.8" font-family="Times,serif" font-size="14.00">(Start)</text>
</g>
<!-- schema_validator -->
<g id="node2" class="node">
<title>schema_validator</title>
<polygon fill="lightblue" stroke="black" points="141,-540 0,-540 0,-504 141,-504 141,-540"/>
<text text-anchor="middle" x="70.5" y="-518.3" font-family="Times,serif" font-size="14.00">schema_validator</text>
</g>
<!-- data_ingestion&#45;&gt;schema_validator -->
<g id="edge16" class="edge">
<title>data_ingestion&#45;&gt;schema_validator</title>
<path fill="none" stroke="black" d="M187.48,-575.9C166.17,-566.27 139.84,-554.36 117.56,-544.28"/>
<polygon fill="black" stroke="black" points="108.29,-540.09 119.26,-540.11 112.85,-542.15 117.4,-544.21 117.4,-544.21 117.4,-544.21 112.85,-542.15 115.55,-548.31 108.29,-540.09 108.29,-540.09"/>
</g>
<!-- quality_validator -->
<g id="node3" class="node">
<title>quality_validator</title>
<polygon fill="lightblue" stroke="black" points="296,-540 159,-540 159,-504 296,-504 296,-540"/>
<text text-anchor="middle" x="227.5" y="-518.3" font-family="Times,serif" font-size="14.00">quality_validator</text>
</g>
<!-- data_ingestion&#45;&gt;quality_validator -->
<g id="edge17" class="edge">
<title>data_ingestion&#45;&gt;quality_validator</title>
<path fill="none" stroke="black" d="M227.5,-575.72C227.5,-567.97 227.5,-558.79 227.5,-550.27"/>
<polygon fill="black" stroke="black" points="227.5,-540 232,-550 227.5,-545 227.5,-550 227.5,-550 227.5,-550 227.5,-545 223,-550 227.5,-540 227.5,-540"/>
</g>
<!-- security_validator -->
<g id="node4" class="node">
<title>security_validator</title>
<polygon fill="lightblue" stroke="black" points="459,-540 314,-540 314,-504 459,-504 459,-540"/>
<text text-anchor="middle" x="386.5" y="-518.3" font-family="Times,serif" font-size="14.00">security_validator</text>
</g>
<!-- data_ingestion&#45;&gt;security_validator -->
<g id="edge18" class="edge">
<title>data_ingestion&#45;&gt;security_validator</title>
<path fill="none" stroke="black" d="M268.03,-575.9C289.61,-566.27 316.27,-554.36 338.84,-544.28"/>
<polygon fill="black" stroke="black" points="348.23,-540.09 340.93,-548.28 343.66,-542.13 339.1,-544.17 339.1,-544.17 339.1,-544.17 343.66,-542.13 337.26,-540.06 348.23,-540.09 348.23,-540.09"/>
</g>
<!-- fan_in::validation_aggregator::c9764136 -->
<g id="node12" class="node">
<title>fan_in::validation_aggregator::c9764136</title>
<ellipse fill="#eedd82" stroke="black" cx="227.5" cy="-450" rx="37.09" ry="18"/>
<text text-anchor="middle" x="227.5" y="-446.3" font-family="Times,serif" font-size="14.00">fan&#45;in</text>
</g>
<!-- schema_validator&#45;&gt;fan_in::validation_aggregator::c9764136 -->
<g id="edge2" class="edge">
<title>schema_validator&#45;&gt;fan_in::validation_aggregator::c9764136</title>
<path fill="none" stroke="black" d="M108.91,-503.88C134.07,-492.66 166.75,-478.09 191.43,-467.08"/>
<polygon fill="black" stroke="black" points="200.8,-462.9 193.5,-471.09 196.23,-464.94 191.67,-466.98 191.67,-466.98 191.67,-466.98 196.23,-464.94 189.83,-462.87 200.8,-462.9 200.8,-462.9"/>
</g>
<!-- quality_validator&#45;&gt;fan_in::validation_aggregator::c9764136 -->
<g id="edge1" class="edge">
<title>quality_validator&#45;&gt;fan_in::validation_aggregator::c9764136</title>
<path fill="none" stroke="black" d="M227.5,-503.7C227.5,-495.98 227.5,-486.71 227.5,-478.11"/>
<polygon fill="black" stroke="black" points="227.5,-468.1 232,-478.1 227.5,-473.1 227.5,-478.1 227.5,-478.1 227.5,-478.1 227.5,-473.1 223,-478.1 227.5,-468.1 227.5,-468.1"/>
</g>
<!-- security_validator&#45;&gt;fan_in::validation_aggregator::c9764136 -->
<g id="edge3" class="edge">
<title>security_validator&#45;&gt;fan_in::validation_aggregator::c9764136</title>
<path fill="none" stroke="black" d="M347.6,-503.88C321.84,-492.53 288.31,-477.77 263.22,-466.73"/>
<polygon fill="black" stroke="black" points="254.05,-462.69 265.02,-462.6 258.63,-464.71 263.21,-466.72 263.21,-466.72 263.21,-466.72 258.63,-464.71 261.39,-470.84 254.05,-462.69 254.05,-462.69"/>
</g>
<!-- validation_aggregator -->
<g id="node5" class="node">
<title>validation_aggregator</title>
<polygon fill="lightblue" stroke="black" points="314,-396 141,-396 141,-360 314,-360 314,-396"/>
<text text-anchor="middle" x="227.5" y="-374.3" font-family="Times,serif" font-size="14.00">validation_aggregator</text>
</g>
<!-- data_normalizer -->
<g id="node6" class="node">
<title>data_normalizer</title>
<polygon fill="lightblue" stroke="black" points="140.5,-324 8.5,-324 8.5,-288 140.5,-288 140.5,-324"/>
<text text-anchor="middle" x="74.5" y="-302.3" font-family="Times,serif" font-size="14.00">data_normalizer</text>
</g>
<!-- validation_aggregator&#45;&gt;data_normalizer -->
<g id="edge19" class="edge">
<title>validation_aggregator&#45;&gt;data_normalizer</title>
<path fill="none" stroke="black" d="M190.07,-359.88C169.25,-350.35 143.15,-338.41 121.02,-328.28"/>
<polygon fill="black" stroke="black" points="111.81,-324.07 122.77,-324.14 116.35,-326.15 120.9,-328.23 120.9,-328.23 120.9,-328.23 116.35,-326.15 119.03,-332.32 111.81,-324.07 111.81,-324.07"/>
</g>
<!-- data_enrichment -->
<g id="node7" class="node">
<title>data_enrichment</title>
<polygon fill="lightblue" stroke="black" points="296,-324 159,-324 159,-288 296,-288 296,-324"/>
<text text-anchor="middle" x="227.5" y="-302.3" font-family="Times,serif" font-size="14.00">data_enrichment</text>
</g>
<!-- validation_aggregator&#45;&gt;data_enrichment -->
<g id="edge20" class="edge">
<title>validation_aggregator&#45;&gt;data_enrichment</title>
<path fill="none" stroke="black" d="M227.5,-359.7C227.5,-351.98 227.5,-342.71 227.5,-334.11"/>
<polygon fill="black" stroke="black" points="227.5,-324.1 232,-334.1 227.5,-329.1 227.5,-334.1 227.5,-334.1 227.5,-334.1 227.5,-329.1 223,-334.1 227.5,-324.1 227.5,-324.1"/>
</g>
<!-- data_aggregator -->
<g id="node8" class="node">
<title>data_aggregator</title>
<polygon fill="lightblue" stroke="black" points="448.5,-324 314.5,-324 314.5,-288 448.5,-288 448.5,-324"/>
<text text-anchor="middle" x="381.5" y="-302.3" font-family="Times,serif" font-size="14.00">data_aggregator</text>
</g>
<!-- validation_aggregator&#45;&gt;data_aggregator -->
<g id="edge21" class="edge">
<title>validation_aggregator&#45;&gt;data_aggregator</title>
<path fill="none" stroke="black" d="M265.17,-359.88C286.13,-350.35 312.4,-338.41 334.68,-328.28"/>
<polygon fill="black" stroke="black" points="343.95,-324.07 336.71,-332.3 339.4,-326.14 334.85,-328.21 334.85,-328.21 334.85,-328.21 339.4,-326.14 332.98,-324.11 343.95,-324.07 343.95,-324.07"/>
</g>
<!-- fan_in::performance_assessor::2147b7fa -->
<g id="node13" class="node">
<title>fan_in::performance_assessor::2147b7fa</title>
<ellipse fill="#eedd82" stroke="black" cx="170.5" cy="-234" rx="37.09" ry="18"/>
<text text-anchor="middle" x="170.5" y="-230.3" font-family="Times,serif" font-size="14.00">fan&#45;in</text>
</g>
<!-- data_normalizer&#45;&gt;fan_in::performance_assessor::2147b7fa -->
<g id="edge7" class="edge">
<title>data_normalizer&#45;&gt;fan_in::performance_assessor::2147b7fa</title>
<path fill="none" stroke="black" d="M98.23,-287.7C111.56,-277.97 128.29,-265.78 142.29,-255.57"/>
<polygon fill="black" stroke="black" points="150.6,-249.51 145.17,-259.04 146.56,-252.45 142.52,-255.4 142.52,-255.4 142.52,-255.4 146.56,-252.45 139.87,-251.76 150.6,-249.51 150.6,-249.51"/>
</g>
<!-- fan_in::accuracy_assessor::7d5034bb -->
<g id="node14" class="node">
<title>fan_in::accuracy_assessor::7d5034bb</title>
<ellipse fill="#eedd82" stroke="black" cx="284.5" cy="-234" rx="37.09" ry="18"/>
<text text-anchor="middle" x="284.5" y="-230.3" font-family="Times,serif" font-size="14.00">fan&#45;in</text>
</g>
<!-- data_normalizer&#45;&gt;fan_in::accuracy_assessor::7d5034bb -->
<g id="edge11" class="edge">
<title>data_normalizer&#45;&gt;fan_in::accuracy_assessor::7d5034bb</title>
<path fill="none" stroke="black" d="M125.6,-287.97C162.51,-275.66 211.61,-259.3 245.41,-248.03"/>
<polygon fill="black" stroke="black" points="254.94,-244.85 246.88,-252.28 250.2,-246.43 245.45,-248.02 245.45,-248.02 245.45,-248.02 250.2,-246.43 244.03,-243.75 254.94,-244.85 254.94,-244.85"/>
</g>
<!-- data_enrichment&#45;&gt;fan_in::performance_assessor::2147b7fa -->
<g id="edge6" class="edge">
<title>data_enrichment&#45;&gt;fan_in::performance_assessor::2147b7fa</title>
<path fill="none" stroke="black" d="M213.41,-287.7C206.37,-279.05 197.74,-268.46 190.07,-259.04"/>
<polygon fill="black" stroke="black" points="183.65,-251.14 193.45,-256.06 186.8,-255.02 189.96,-258.9 189.96,-258.9 189.96,-258.9 186.8,-255.02 186.47,-261.74 183.65,-251.14 183.65,-251.14"/>
</g>
<!-- data_enrichment&#45;&gt;fan_in::accuracy_assessor::7d5034bb -->
<g id="edge10" class="edge">
<title>data_enrichment&#45;&gt;fan_in::accuracy_assessor::7d5034bb</title>
<path fill="none" stroke="black" d="M241.59,-287.7C248.63,-279.05 257.26,-268.46 264.93,-259.04"/>
<polygon fill="black" stroke="black" points="271.35,-251.14 268.53,-261.74 268.2,-255.02 265.04,-258.9 265.04,-258.9 265.04,-258.9 268.2,-255.02 261.55,-256.06 271.35,-251.14 271.35,-251.14"/>
</g>
<!-- data_aggregator&#45;&gt;fan_in::performance_assessor::2147b7fa -->
<g id="edge5" class="edge">
<title>data_aggregator&#45;&gt;fan_in::performance_assessor::2147b7fa</title>
<path fill="none" stroke="black" d="M330.15,-287.97C293.07,-275.66 243.74,-259.3 209.78,-248.03"/>
<polygon fill="black" stroke="black" points="200.2,-244.85 211.11,-243.73 204.94,-246.43 209.69,-248 209.69,-248 209.69,-248 204.94,-246.43 208.27,-252.27 200.2,-244.85 200.2,-244.85"/>
</g>
<!-- data_aggregator&#45;&gt;fan_in::accuracy_assessor::7d5034bb -->
<g id="edge9" class="edge">
<title>data_aggregator&#45;&gt;fan_in::accuracy_assessor::7d5034bb</title>
<path fill="none" stroke="black" d="M357.52,-287.7C343.96,-277.91 326.92,-265.61 312.71,-255.36"/>
<polygon fill="black" stroke="black" points="304.29,-249.28 315.03,-251.48 308.34,-252.2 312.4,-255.13 312.4,-255.13 312.4,-255.13 308.34,-252.2 309.76,-258.78 304.29,-249.28 304.29,-249.28"/>
</g>
<!-- performance_assessor -->
<g id="node9" class="node">
<title>performance_assessor</title>
<polygon fill="lightblue" stroke="black" points="214.5,-180 38.5,-180 38.5,-144 214.5,-144 214.5,-180"/>
<text text-anchor="middle" x="126.5" y="-158.3" font-family="Times,serif" font-size="14.00">performance_assessor</text>
</g>
<!-- fan_in::final_processor::d46bb67f -->
<g id="node15" class="node">
<title>fan_in::final_processor::d46bb67f</title>
<ellipse fill="#eedd82" stroke="black" cx="216.5" cy="-90" rx="37.09" ry="18"/>
<text text-anchor="middle" x="216.5" y="-86.3" font-family="Times,serif" font-size="14.00">fan&#45;in</text>
</g>
<!-- performance_assessor&#45;&gt;fan_in::final_processor::d46bb67f -->
<g id="edge14" class="edge">
<title>performance_assessor&#45;&gt;fan_in::final_processor::d46bb67f</title>
<path fill="none" stroke="black" d="M148.75,-143.7C161.04,-134.13 176.42,-122.17 189.41,-112.07"/>
<polygon fill="black" stroke="black" points="197.55,-105.74 192.42,-115.43 193.6,-108.81 189.66,-111.88 189.66,-111.88 189.66,-111.88 193.6,-108.81 186.89,-108.33 197.55,-105.74 197.55,-105.74"/>
</g>
<!-- accuracy_assessor -->
<g id="node10" class="node">
<title>accuracy_assessor</title>
<polygon fill="lightblue" stroke="black" points="380.5,-180 232.5,-180 232.5,-144 380.5,-144 380.5,-180"/>
<text text-anchor="middle" x="306.5" y="-158.3" font-family="Times,serif" font-size="14.00">accuracy_assessor</text>
</g>
<!-- accuracy_assessor&#45;&gt;fan_in::final_processor::d46bb67f -->
<g id="edge13" class="edge">
<title>accuracy_assessor&#45;&gt;fan_in::final_processor::d46bb67f</title>
<path fill="none" stroke="black" d="M284.25,-143.7C271.96,-134.13 256.58,-122.17 243.59,-112.07"/>
<polygon fill="black" stroke="black" points="235.45,-105.74 246.11,-108.33 239.4,-108.81 243.34,-111.88 243.34,-111.88 243.34,-111.88 239.4,-108.81 240.58,-115.43 235.45,-105.74 235.45,-105.74"/>
</g>
<!-- final_processor -->
<g id="node11" class="node">
<title>final_processor</title>
<polygon fill="lightblue" stroke="black" points="278.5,-36 154.5,-36 154.5,0 278.5,0 278.5,-36"/>
<text text-anchor="middle" x="216.5" y="-14.3" font-family="Times,serif" font-size="14.00">final_processor</text>
</g>
<!-- fan_in::validation_aggregator::c9764136&#45;&gt;validation_aggregator -->
<g id="edge4" class="edge">
<title>fan_in::validation_aggregator::c9764136&#45;&gt;validation_aggregator</title>
<path fill="none" stroke="black" d="M227.5,-431.7C227.5,-423.98 227.5,-414.71 227.5,-406.11"/>
<polygon fill="black" stroke="black" points="227.5,-396.1 232,-406.1 227.5,-401.1 227.5,-406.1 227.5,-406.1 227.5,-406.1 227.5,-401.1 223,-406.1 227.5,-396.1 227.5,-396.1"/>
</g>
<!-- fan_in::performance_assessor::2147b7fa&#45;&gt;performance_assessor -->
<g id="edge8" class="edge">
<title>fan_in::performance_assessor::2147b7fa&#45;&gt;performance_assessor</title>
<path fill="none" stroke="black" d="M160.07,-216.41C154.96,-208.28 148.69,-198.31 142.96,-189.18"/>
<polygon fill="black" stroke="black" points="137.47,-180.45 146.6,-186.52 140.13,-184.68 142.79,-188.91 142.79,-188.91 142.79,-188.91 140.13,-184.68 138.98,-191.31 137.47,-180.45 137.47,-180.45"/>
</g>
<!-- fan_in::accuracy_assessor::7d5034bb&#45;&gt;accuracy_assessor -->
<g id="edge12" class="edge">
<title>fan_in::accuracy_assessor::7d5034bb&#45;&gt;accuracy_assessor</title>
<path fill="none" stroke="black" d="M289.83,-216.05C292.28,-208.26 295.24,-198.82 297.99,-190.08"/>
<polygon fill="black" stroke="black" points="301.07,-180.28 302.37,-191.16 299.57,-185.05 298.07,-189.82 298.07,-189.82 298.07,-189.82 299.57,-185.05 293.78,-188.47 301.07,-180.28 301.07,-180.28"/>
</g>
<!-- fan_in::final_processor::d46bb67f&#45;&gt;final_processor -->
<g id="edge15" class="edge">
<title>fan_in::final_processor::d46bb67f&#45;&gt;final_processor</title>
<path fill="none" stroke="black" d="M216.5,-71.7C216.5,-63.98 216.5,-54.71 216.5,-46.11"/>
<polygon fill="black" stroke="black" points="216.5,-36.1 221,-46.1 216.5,-41.1 216.5,-46.1 216.5,-46.1 216.5,-46.1 216.5,-41.1 212,-46.1 216.5,-36.1 216.5,-36.1"/>
</g>
</g>
</svg>
