<?xml version="1.0" encoding="UTF-8" standalone="no"?>
<!DOCTYPE svg PUBLIC "-//W3C//DTD SVG 1.1//EN"
 "http://www.w3.org/Graphics/SVG/1.1/DTD/svg11.dtd">
<!-- Generated by graphviz version 2.42.4 (0)
 -->
<!-- Title: Workflow Pages: 1 -->
<svg width="228pt" height="190pt"
 viewBox="0.00 0.00 228.00 190.00" xmlns="http://www.w3.org/2000/svg" xmlns:xlink="http://www.w3.org/1999/xlink">
<g id="graph0" class="graph" transform="scale(1 1) rotate(0) translate(4 186)">
<title>Workflow</title>
<polygon fill="white" stroke="transparent" points="-4,4 -4,-186 224,-186 224,4 -4,4"/>
<!-- email_preprocessor -->
<g id="node1" class="node">
<title>email_preprocessor</title>
<polygon fill="lightgreen" stroke="black" points="188,-182 32,-182 32,-144 188,-144 188,-182"/>
<text text-anchor="middle" x="110" y="-166.8" font-family="Times,serif" font-size="14.00">email_preprocessor</text>
<text text-anchor="middle" x="110" y="-151.8" font-family="Times,serif" font-size="14.00">(Start)</text>
</g>
<!-- email_writer -->
<g id="node2" class="node">
<title>email_writer</title>
<polygon fill="lightblue" stroke="black" points="163.5,-108 56.5,-108 56.5,-72 163.5,-72 163.5,-108"/>
<text text-anchor="middle" x="110" y="-86.3" font-family="Times,serif" font-size="14.00">email_writer</text>
</g>
<!-- email_preprocessor&#45;&gt;email_writer -->
<g id="edge1" class="edge">
<title>email_preprocessor&#45;&gt;email_writer</title>
<path fill="none" stroke="black" d="M110,-143.72C110,-135.97 110,-126.79 110,-118.27"/>
<polygon fill="black" stroke="black" points="110,-108 114.5,-118 110,-113 110,-118 110,-118 110,-118 110,-113 105.5,-118 110,-108 110,-108"/>
</g>
<!-- conclude_workflow_executor -->
<g id="node3" class="node">
<title>conclude_workflow_executor</title>
<polygon fill="lightblue" stroke="black" points="220,-36 0,-36 0,0 220,0 220,-36"/>
<text text-anchor="middle" x="110" y="-14.3" font-family="Times,serif" font-size="14.00">conclude_workflow_executor</text>
</g>
<!-- email_writer&#45;&gt;conclude_workflow_executor -->
<g id="edge2" class="edge">
<title>email_writer&#45;&gt;conclude_workflow_executor</title>
<path fill="none" stroke="black" d="M110,-71.7C110,-63.98 110,-54.71 110,-46.11"/>
<polygon fill="black" stroke="black" points="110,-36.1 114.5,-46.1 110,-41.1 110,-46.1 110,-46.1 110,-46.1 110,-41.1 105.5,-46.1 110,-36.1 110,-36.1"/>
</g>
</g>
</svg>
