<?xml version="1.0" encoding="UTF-8" standalone="no"?>
<!DOCTYPE svg PUBLIC "-//W3C//DTD SVG 1.1//EN"
 "http://www.w3.org/Graphics/SVG/1.1/DTD/svg11.dtd">
<!-- Generated by graphviz version 2.42.4 (0)
 -->
<!-- Title: Workflow Pages: 1 -->
<svg width="82pt" height="190pt"
 viewBox="0.00 0.00 82.00 190.00" xmlns="http://www.w3.org/2000/svg" xmlns:xlink="http://www.w3.org/1999/xlink">
<g id="graph0" class="graph" transform="scale(1 1) rotate(0) translate(4 186)">
<title>Workflow</title>
<polygon fill="white" stroke="transparent" points="-4,4 -4,-186 78,-186 78,4 -4,4"/>
<!-- drafter -->
<g id="node1" class="node">
<title>drafter</title>
<polygon fill="lightgreen" stroke="black" points="70.5,-182 3.5,-182 3.5,-144 70.5,-144 70.5,-182"/>
<text text-anchor="middle" x="37" y="-166.8" font-family="Times,serif" font-size="14.00">drafter</text>
<text text-anchor="middle" x="37" y="-151.8" font-family="Times,serif" font-size="14.00">(Start)</text>
</g>
<!-- editor -->
<g id="node2" class="node">
<title>editor</title>
<polygon fill="lightblue" stroke="black" points="66.5,-108 7.5,-108 7.5,-72 66.5,-72 66.5,-108"/>
<text text-anchor="middle" x="37" y="-86.3" font-family="Times,serif" font-size="14.00">editor</text>
</g>
<!-- drafter&#45;&gt;editor -->
<g id="edge1" class="edge">
<title>drafter&#45;&gt;editor</title>
<path fill="none" stroke="black" d="M37,-143.72C37,-135.97 37,-126.79 37,-118.27"/>
<polygon fill="black" stroke="black" points="37,-108 41.5,-118 37,-113 37,-118 37,-118 37,-118 37,-113 32.5,-118 37,-108 37,-108"/>
</g>
<!-- finalizer -->
<g id="node3" class="node">
<title>finalizer</title>
<polygon fill="lightblue" stroke="black" points="74,-36 0,-36 0,0 74,0 74,-36"/>
<text text-anchor="middle" x="37" y="-14.3" font-family="Times,serif" font-size="14.00">finalizer</text>
</g>
<!-- editor&#45;&gt;finalizer -->
<g id="edge2" class="edge">
<title>editor&#45;&gt;finalizer</title>
<path fill="none" stroke="black" d="M37,-71.7C37,-63.98 37,-54.71 37,-46.11"/>
<polygon fill="black" stroke="black" points="37,-36.1 41.5,-46.1 37,-41.1 37,-46.1 37,-46.1 37,-46.1 37,-41.1 32.5,-46.1 37,-36.1 37,-36.1"/>
</g>
</g>
</svg>
