<?xml version="1.0" encoding="UTF-8" standalone="no"?>
<!DOCTYPE svg PUBLIC "-//W3C//DTD SVG 1.1//EN"
 "http://www.w3.org/Graphics/SVG/1.1/DTD/svg11.dtd">
<!-- Generated by graphviz version 2.42.4 (0)
 -->
<!-- Title: Workflow Pages: 1 -->
<svg width="277pt" height="133pt"
 viewBox="0.00 0.00 276.50 133.00" xmlns="http://www.w3.org/2000/svg" xmlns:xlink="http://www.w3.org/1999/xlink">
<g id="graph0" class="graph" transform="scale(1 1) rotate(0) translate(4 129)">
<title>Workflow</title>
<polygon fill="white" stroke="transparent" points="-4,4 -4,-129 272.5,-129 272.5,4 -4,4"/>
<!-- spam_detector -->
<g id="node1" class="node">
<title>spam_detector</title>
<polygon fill="lightgreen" stroke="black" points="194.5,-125 72.5,-125 72.5,-87 194.5,-87 194.5,-125"/>
<text text-anchor="middle" x="133.5" y="-109.8" font-family="Times,serif" font-size="14.00">spam_detector</text>
<text text-anchor="middle" x="133.5" y="-94.8" font-family="Times,serif" font-size="14.00">(Start)</text>
</g>
<!-- email_assistant -->
<g id="node2" class="node">
<title>email_assistant</title>
<polygon fill="lightblue" stroke="black" points="127,-36 0,-36 0,0 127,0 127,-36"/>
<text text-anchor="middle" x="63.5" y="-14.3" font-family="Times,serif" font-size="14.00">email_assistant</text>
</g>
<!-- spam_detector&#45;&gt;email_assistant -->
<g id="edge1" class="edge">
<title>spam_detector&#45;&gt;email_assistant</title>
<path fill="none" stroke="black" stroke-dasharray="5,2" d="M117.56,-86.83C112.67,-81.17 107.31,-74.87 102.5,-69 95.97,-61.04 89.01,-52.22 82.8,-44.24"/>
<polygon fill="black" stroke="black" points="76.65,-36.29 86.33,-41.44 79.71,-40.24 82.77,-44.2 82.77,-44.2 82.77,-44.2 79.71,-40.24 79.21,-46.95 76.65,-36.29 76.65,-36.29"/>
<text text-anchor="middle" x="142" y="-57.8" font-family="Times,serif" font-size="14.00">conditional</text>
</g>
<!-- spam_handler -->
<g id="node3" class="node">
<title>spam_handler</title>
<polygon fill="lightblue" stroke="black" points="261.5,-36 145.5,-36 145.5,0 261.5,0 261.5,-36"/>
<text text-anchor="middle" x="203.5" y="-14.3" font-family="Times,serif" font-size="14.00">spam_handler</text>
</g>
<!-- spam_detector&#45;&gt;spam_handler -->
<g id="edge2" class="edge">
<title>spam_detector&#45;&gt;spam_handler</title>
<path fill="none" stroke="black" stroke-dasharray="5,2" d="M162.52,-86.99C169.36,-81.79 176.19,-75.69 181.5,-69 186.95,-62.13 191.33,-53.71 194.71,-45.75"/>
<polygon fill="black" stroke="black" points="198.33,-36.4 198.91,-47.35 196.52,-41.06 194.72,-45.72 194.72,-45.72 194.72,-45.72 196.52,-41.06 190.52,-44.1 198.33,-36.4 198.33,-36.4"/>
<text text-anchor="middle" x="229" y="-57.8" font-family="Times,serif" font-size="14.00">conditional</text>
</g>
</g>
</svg>
