<?xml version="1.0" encoding="UTF-8" standalone="no"?>
<!DOCTYPE svg PUBLIC "-//W3C//DTD SVG 1.1//EN"
 "http://www.w3.org/Graphics/SVG/1.1/DTD/svg11.dtd">
<!-- Generated by graphviz version 2.42.4 (0)
 -->
<!-- Title: Workflow Pages: 1 -->
<svg width="643pt" height="265pt"
 viewBox="0.00 0.00 643.00 265.00" xmlns="http://www.w3.org/2000/svg" xmlns:xlink="http://www.w3.org/1999/xlink">
<g id="graph0" class="graph" transform="scale(1 1) rotate(0) translate(4 261)">
<title>Workflow</title>
<polygon fill="white" stroke="transparent" points="-4,4 -4,-261 639,-261 639,4 -4,4"/>
<!-- store_email -->
<g id="node1" class="node">
<title>store_email</title>
<polygon fill="lightgreen" stroke="black" points="361.5,-257 262.5,-257 262.5,-219 361.5,-219 361.5,-257"/>
<text text-anchor="middle" x="312" y="-241.8" font-family="Times,serif" font-size="14.00">store_email</text>
<text text-anchor="middle" x="312" y="-226.8" font-family="Times,serif" font-size="14.00">(Start)</text>
</g>
<!-- analyze_email -->
<g id="node2" class="node">
<title>analyze_email</title>
<polygon fill="lightblue" stroke="black" points="370,-182 254,-182 254,-146 370,-146 370,-182"/>
<text text-anchor="middle" x="312" y="-160.3" font-family="Times,serif" font-size="14.00">analyze_email</text>
</g>
<!-- store_email&#45;&gt;analyze_email -->
<g id="edge1" class="edge">
<title>store_email&#45;&gt;analyze_email</title>
<path fill="none" stroke="black" d="M312,-218.83C312,-210.89 312,-201.41 312,-192.63"/>
<polygon fill="black" stroke="black" points="312,-182.42 316.5,-192.42 312,-187.42 312,-192.42 312,-192.42 312,-192.42 312,-187.42 307.5,-192.42 312,-182.42 312,-182.42"/>
</g>
<!-- handle_spam -->
<g id="node3" class="node">
<title>handle_spam</title>
<polygon fill="lightblue" stroke="black" points="110,-109 0,-109 0,-73 110,-73 110,-109"/>
<text text-anchor="middle" x="55" y="-87.3" font-family="Times,serif" font-size="14.00">handle_spam</text>
</g>
<!-- analyze_email&#45;&gt;handle_spam -->
<g id="edge2" class="edge">
<title>analyze_email&#45;&gt;handle_spam</title>
<path fill="none" stroke="black" d="M253.68,-146.89C213.78,-135.87 160.87,-121.25 119.68,-109.87"/>
<polygon fill="black" stroke="black" points="110.01,-107.2 120.84,-105.52 114.83,-108.53 119.65,-109.86 119.65,-109.86 119.65,-109.86 114.83,-108.53 118.45,-114.2 110.01,-107.2 110.01,-107.2"/>
</g>
<!-- draft_reply -->
<g id="node4" class="node">
<title>draft_reply</title>
<polygon fill="lightblue" stroke="black" points="223.5,-109 128.5,-109 128.5,-73 223.5,-73 223.5,-109"/>
<text text-anchor="middle" x="176" y="-87.3" font-family="Times,serif" font-size="14.00">draft_reply</text>
</g>
<!-- analyze_email&#45;&gt;draft_reply -->
<g id="edge3" class="edge">
<title>analyze_email&#45;&gt;draft_reply</title>
<path fill="none" stroke="black" d="M279.42,-145.99C260.97,-136.36 237.69,-124.21 217.89,-113.87"/>
<polygon fill="black" stroke="black" points="208.78,-109.11 219.73,-109.75 213.21,-111.43 217.65,-113.74 217.65,-113.74 217.65,-113.74 213.21,-111.43 215.56,-117.73 208.78,-109.11 208.78,-109.11"/>
</g>
<!-- summarize_email -->
<g id="node5" class="node">
<title>summarize_email</title>
<polygon fill="lightblue" stroke="black" points="382.5,-109 241.5,-109 241.5,-73 382.5,-73 382.5,-109"/>
<text text-anchor="middle" x="312" y="-87.3" font-family="Times,serif" font-size="14.00">summarize_email</text>
</g>
<!-- analyze_email&#45;&gt;summarize_email -->
<g id="edge4" class="edge">
<title>analyze_email&#45;&gt;summarize_email</title>
<path fill="none" stroke="black" d="M312,-145.81C312,-137.79 312,-128.05 312,-119.07"/>
<polygon fill="black" stroke="black" points="312,-109.03 316.5,-119.03 312,-114.03 312,-119.03 312,-119.03 312,-119.03 312,-114.03 307.5,-119.03 312,-109.03 312,-109.03"/>
</g>
<!-- handle_uncertain -->
<g id="node6" class="node">
<title>handle_uncertain</title>
<polygon fill="lightblue" stroke="black" points="541,-109 401,-109 401,-73 541,-73 541,-109"/>
<text text-anchor="middle" x="471" y="-87.3" font-family="Times,serif" font-size="14.00">handle_uncertain</text>
</g>
<!-- analyze_email&#45;&gt;handle_uncertain -->
<g id="edge5" class="edge">
<title>analyze_email&#45;&gt;handle_uncertain</title>
<path fill="none" stroke="black" d="M350.08,-145.99C372.05,-136.19 399.86,-123.77 423.28,-113.31"/>
<polygon fill="black" stroke="black" points="432.68,-109.11 425.38,-117.3 428.11,-111.15 423.54,-113.19 423.54,-113.19 423.54,-113.19 428.11,-111.15 421.71,-109.08 432.68,-109.11 432.68,-109.11"/>
</g>
<!-- database_access -->
<g id="node7" class="node">
<title>database_access</title>
<polygon fill="lightblue" stroke="black" points="511,-36 377,-36 377,0 511,0 511,-36"/>
<text text-anchor="middle" x="444" y="-14.3" font-family="Times,serif" font-size="14.00">database_access</text>
</g>
<!-- analyze_email&#45;&gt;database_access -->
<g id="edge6" class="edge">
<title>analyze_email&#45;&gt;database_access</title>
<path fill="none" stroke="black" stroke-dasharray="5,2" d="M370.01,-158.01C433.09,-151.25 527.89,-136.69 550,-109 559.98,-96.5 558.36,-86.64 550,-73 541.42,-59 527.95,-48.49 513.45,-40.65"/>
<polygon fill="black" stroke="black" points="504.32,-36.1 515.28,-36.53 508.8,-38.33 513.27,-40.56 513.27,-40.56 513.27,-40.56 508.8,-38.33 511.27,-44.59 504.32,-36.1 504.32,-36.1"/>
<text text-anchor="middle" x="595.5" y="-87.3" font-family="Times,serif" font-size="14.00">conditional</text>
</g>
<!-- summarize_email&#45;&gt;database_access -->
<g id="edge7" class="edge">
<title>summarize_email&#45;&gt;database_access</title>
<path fill="none" stroke="black" d="M343.62,-72.99C361.53,-63.36 384.12,-51.21 403.34,-40.87"/>
<polygon fill="black" stroke="black" points="412.18,-36.11 405.51,-44.81 407.78,-38.48 403.38,-40.85 403.38,-40.85 403.38,-40.85 407.78,-38.48 401.24,-36.89 412.18,-36.11 412.18,-36.11"/>
</g>
</g>
</svg>
