<?xml version="1.0" encoding="UTF-8" standalone="no"?>
<!DOCTYPE svg PUBLIC "-//W3C//DTD SVG 1.1//EN"
 "http://www.w3.org/Graphics/SVG/1.1/DTD/svg11.dtd">
<!-- Generated by graphviz version 2.42.4 (0)
 -->
<!-- Title: Workflow Pages: 1 -->
<svg width="128pt" height="118pt"
 viewBox="0.00 0.00 128.00 118.00" xmlns="http://www.w3.org/2000/svg" xmlns:xlink="http://www.w3.org/1999/xlink">
<g id="graph0" class="graph" transform="scale(1 1) rotate(0) translate(4 114)">
<title>Workflow</title>
<polygon fill="white" stroke="transparent" points="-4,4 -4,-114 124,-114 124,4 -4,4"/>
<!-- guess_number -->
<g id="node1" class="node">
<title>guess_number</title>
<polygon fill="lightgreen" stroke="black" points="120,-110 0,-110 0,-72 120,-72 120,-110"/>
<text text-anchor="middle" x="60" y="-94.8" font-family="Times,serif" font-size="14.00">guess_number</text>
<text text-anchor="middle" x="60" y="-79.8" font-family="Times,serif" font-size="14.00">(Start)</text>
</g>
<!-- judge -->
<g id="node2" class="node">
<title>judge</title>
<polygon fill="lightblue" stroke="black" points="88,-36 32,-36 32,0 88,0 88,-36"/>
<text text-anchor="middle" x="60" y="-14.3" font-family="Times,serif" font-size="14.00">judge</text>
</g>
<!-- guess_number&#45;&gt;judge -->
<g id="edge1" class="edge">
<title>guess_number&#45;&gt;judge</title>
<path fill="none" stroke="black" d="M54.01,-71.72C53.26,-63.89 53.06,-54.59 53.43,-45.99"/>
<polygon fill="black" stroke="black" points="54.14,-36 57.91,-46.3 53.78,-40.99 53.43,-45.98 53.43,-45.98 53.43,-45.98 53.78,-40.99 48.94,-45.66 54.14,-36 54.14,-36"/>
</g>
<!-- judge&#45;&gt;guess_number -->
<g id="edge2" class="edge">
<title>judge&#45;&gt;guess_number</title>
<path fill="none" stroke="black" d="M65.86,-36C66.67,-43.66 66.93,-52.92 66.63,-61.58"/>
<polygon fill="black" stroke="black" points="65.99,-71.72 62.13,-61.45 66.3,-66.73 66.62,-61.74 66.62,-61.74 66.62,-61.74 66.3,-66.73 71.11,-62.02 65.99,-71.72 65.99,-71.72"/>
</g>
</g>
</svg>
