<?xml version="1.0" encoding="UTF-8" standalone="no"?>
<!DOCTYPE svg PUBLIC "-//W3C//DTD SVG 1.1//EN"
 "http://www.w3.org/Graphics/SVG/1.1/DTD/svg11.dtd">
<!-- Generated by graphviz version 2.42.4 (0)
 -->
<!-- Title: Workflow Pages: 1 -->
<svg width="390pt" height="190pt"
 viewBox="0.00 0.00 389.50 190.00" xmlns="http://www.w3.org/2000/svg" xmlns:xlink="http://www.w3.org/1999/xlink">
<g id="graph0" class="graph" transform="scale(1 1) rotate(0) translate(4 186)">
<title>Workflow</title>
<polygon fill="white" stroke="transparent" points="-4,4 -4,-186 385.5,-186 385.5,4 -4,4"/>
<!-- store_email -->
<g id="node1" class="node">
<title>store_email</title>
<polygon fill="lightgreen" stroke="black" points="218,-182 119,-182 119,-144 218,-144 218,-182"/>
<text text-anchor="middle" x="168.5" y="-166.8" font-family="Times,serif" font-size="14.00">store_email</text>
<text text-anchor="middle" x="168.5" y="-151.8" font-family="Times,serif" font-size="14.00">(Start)</text>
</g>
<!-- detect_spam -->
<g id="node2" class="node">
<title>detect_spam</title>
<polygon fill="lightblue" stroke="black" points="222,-108 115,-108 115,-72 222,-72 222,-108"/>
<text text-anchor="middle" x="168.5" y="-86.3" font-family="Times,serif" font-size="14.00">detect_spam</text>
</g>
<!-- store_email&#45;&gt;detect_spam -->
<g id="edge1" class="edge">
<title>store_email&#45;&gt;detect_spam</title>
<path fill="none" stroke="black" d="M168.5,-143.72C168.5,-135.97 168.5,-126.79 168.5,-118.27"/>
<polygon fill="black" stroke="black" points="168.5,-108 173,-118 168.5,-113 168.5,-118 168.5,-118 168.5,-118 168.5,-113 164,-118 168.5,-108 168.5,-108"/>
</g>
<!-- draft_reply -->
<g id="node3" class="node">
<title>draft_reply</title>
<polygon fill="lightblue" stroke="black" points="95,-36 0,-36 0,0 95,0 95,-36"/>
<text text-anchor="middle" x="47.5" y="-14.3" font-family="Times,serif" font-size="14.00">draft_reply</text>
</g>
<!-- detect_spam&#45;&gt;draft_reply -->
<g id="edge2" class="edge">
<title>detect_spam&#45;&gt;draft_reply</title>
<path fill="none" stroke="black" d="M138.9,-71.88C122.93,-62.64 103.04,-51.13 85.89,-41.21"/>
<polygon fill="black" stroke="black" points="77.21,-36.19 88.12,-37.3 81.54,-38.69 85.87,-41.2 85.87,-41.2 85.87,-41.2 81.54,-38.69 83.62,-45.09 77.21,-36.19 77.21,-36.19"/>
</g>
<!-- handle_spam -->
<g id="node4" class="node">
<title>handle_spam</title>
<polygon fill="lightblue" stroke="black" points="223.5,-36 113.5,-36 113.5,0 223.5,0 223.5,-36"/>
<text text-anchor="middle" x="168.5" y="-14.3" font-family="Times,serif" font-size="14.00">handle_spam</text>
</g>
<!-- detect_spam&#45;&gt;handle_spam -->
<g id="edge3" class="edge">
<title>detect_spam&#45;&gt;handle_spam</title>
<path fill="none" stroke="black" d="M168.5,-71.7C168.5,-63.98 168.5,-54.71 168.5,-46.11"/>
<polygon fill="black" stroke="black" points="168.5,-36.1 173,-46.1 168.5,-41.1 168.5,-46.1 168.5,-46.1 168.5,-46.1 168.5,-41.1 164,-46.1 168.5,-36.1 168.5,-36.1"/>
</g>
<!-- handle_uncertain -->
<g id="node5" class="node">
<title>handle_uncertain</title>
<polygon fill="lightblue" stroke="black" points="381.5,-36 241.5,-36 241.5,0 381.5,0 381.5,-36"/>
<text text-anchor="middle" x="311.5" y="-14.3" font-family="Times,serif" font-size="14.00">handle_uncertain</text>
</g>
<!-- detect_spam&#45;&gt;handle_uncertain -->
<g id="edge4" class="edge">
<title>detect_spam&#45;&gt;handle_uncertain</title>
<path fill="none" stroke="black" d="M203.48,-71.88C222.7,-62.47 246.73,-50.71 267.24,-40.67"/>
<polygon fill="black" stroke="black" points="276.38,-36.19 269.38,-44.63 271.89,-38.39 267.4,-40.59 267.4,-40.59 267.4,-40.59 271.89,-38.39 265.42,-36.54 276.38,-36.19 276.38,-36.19"/>
</g>
</g>
</svg>
